<?xml version="1.0" encoding="UTF-8"?>
<svg version="1.1" xmlns="http://www.w3.org/2000/svg" width="512" height="512">
<path d="M0 0 C12.29303579 10.78054186 23.90530815 23.13156457 29.984375 38.6171875 C29.984375 39.2771875 29.984375 39.9371875 29.984375 40.6171875 C30.644375 40.6171875 31.304375 40.6171875 31.984375 40.6171875 C32.25121094 39.74449219 32.51804687 38.87179688 32.79296875 37.97265625 C40.99633975 14.86873595 62.70126527 -3.77893998 84.296875 -14.1953125 C112.31430421 -27.17455208 143.09016062 -29.07386775 172.34619141 -18.98657227 C200.36307574 -8.67475962 222.58256952 11.58673887 235.92333984 38.29833984 C237.87159539 42.5561703 239.42793253 46.93261663 240.921875 51.3671875 C241.34557373 52.62486938 241.34557373 52.62486938 241.77783203 53.90795898 C245.39694294 65.29673075 246.37506847 76.45584519 246.359375 88.3671875 C246.35916351 89.03849701 246.35895203 89.70980652 246.35873413 90.40145874 C246.2978001 109.95261968 242.32463281 127.92306582 236.984375 146.6171875 C238.89899536 146.59362183 238.89899536 146.59362183 240.85229492 146.56958008 C245.59523184 146.51521369 250.3381413 146.48081287 255.08129883 146.45239258 C257.13277826 146.43732128 259.18422556 146.41686068 261.2355957 146.39086914 C264.18709248 146.35441326 267.13816263 146.33744444 270.08984375 146.32421875 C271.46199287 146.30099297 271.46199287 146.30099297 272.86186218 146.27729797 C277.71302873 146.27602055 281.09138466 146.37879172 284.984375 149.6171875 C287.80162733 153.843066 287.78395884 157.65343438 286.984375 162.6171875 C284.79414582 165.44143038 283.15420293 167.03227353 279.984375 168.6171875 C278.3195686 168.70758656 276.65114079 168.73474007 274.98388672 168.73071289 C273.42249466 168.73059959 273.42249466 168.73059959 271.82955933 168.73048401 C270.70244537 168.72532272 269.57533142 168.72016144 268.4140625 168.71484375 C266.68701584 168.71272133 266.68701584 168.71272133 264.92507935 168.71055603 C261.23648514 168.70494466 257.54795095 168.6923902 253.859375 168.6796875 C251.36328212 168.67467397 248.8671883 168.67011081 246.37109375 168.66601562 C240.24216691 168.65497153 234.11327524 168.6382223 227.984375 168.6171875 C227.69535561 169.51252449 227.69535561 169.51252449 227.40049744 170.4259491 C225.5143529 176.19081116 223.28598363 181.51899498 220.546875 186.9296875 C220.11584473 187.785625 219.68481445 188.6415625 219.24072266 189.5234375 C212.12514815 203.42480943 203.90770106 216.80420649 194.984375 229.6171875 C194.61135254 230.15472656 194.23833008 230.69226563 193.85400391 231.24609375 C181.4612873 249.04700202 167.65292679 265.65033221 152.984375 281.6171875 C152.46037109 282.19162598 151.93636719 282.76606445 151.39648438 283.35791016 C142.57983607 293.00328383 133.42695612 302.14823623 123.78564453 310.96875 C122.15672454 312.45946127 120.53592843 313.95835471 118.91796875 315.4609375 C112.80241342 321.09803545 106.50188619 326.45179402 99.984375 331.6171875 C99.34113281 332.12765625 98.69789063 332.638125 98.03515625 333.1640625 C80.83475135 346.77177654 63.25551271 359.51573572 44.5625 371.01123047 C42.7824906 372.12002799 41.02290038 373.26204936 39.28125 374.43017578 C38.40984375 374.99849121 37.5384375 375.56680664 36.640625 376.15234375 C35.86525391 376.67320557 35.08988281 377.19406738 34.29101562 377.73071289 C31.984375 378.6171875 31.984375 378.6171875 29.51904297 377.96435547 C24.74118659 375.42493999 20.18979842 372.55677038 15.609375 369.6796875 C13.99724121 368.66914307 13.99724121 368.66914307 12.35253906 367.63818359 C4.50573032 362.6752951 -3.06396355 357.46884943 -10.43212891 351.82421875 C-11.95158662 350.66600121 -13.48914017 349.53164065 -15.02734375 348.3984375 C-26.10545327 340.23406306 -36.72981202 331.47711587 -47.203125 322.5546875 C-47.69989746 322.13340576 -48.19666992 321.71212402 -48.70849609 321.27807617 C-59.1351134 312.31992656 -69.02261085 302.77761913 -78.72021484 293.04296875 C-80.40738458 291.35037403 -82.09992696 289.66328153 -83.79296875 287.9765625 C-89.41375658 282.35952056 -94.89195018 276.69816671 -100.015625 270.6171875 C-100.89234014 269.60730044 -101.76989639 268.59814273 -102.6484375 267.58984375 C-122.65162194 244.23189327 -140.31047454 218.96721041 -155.078125 191.9921875 C-155.62654053 190.99695068 -156.17495605 190.00171387 -156.73999023 188.97631836 C-157.25505127 188.01991455 -157.7701123 187.06351074 -158.30078125 186.078125 C-158.97959351 184.82201416 -158.97959351 184.82201416 -159.67211914 183.54052734 C-161.45202983 179.66761247 -162.73395503 175.67781424 -164.015625 171.6171875 C-164.67881744 171.62606995 -165.34200989 171.63495239 -166.02529907 171.644104 C-172.93588634 171.73268706 -179.84631196 171.79296765 -186.75732422 171.83691406 C-189.33551588 171.85701313 -191.91366204 171.88429691 -194.49169922 171.91894531 C-198.20030961 171.96753597 -201.90831656 171.99017408 -205.6171875 172.0078125 C-207.34251205 172.03878021 -207.34251205 172.03878021 -209.10269165 172.07037354 C-215.35566317 172.07212169 -219.31573983 171.9328558 -224.015625 167.6171875 C-225.87289116 163.90265518 -225.60063589 159.66139325 -225.015625 155.6171875 C-222.82539582 152.79294462 -221.18545293 151.20210147 -218.015625 149.6171875 C-216.59679619 149.49971272 -215.17291086 149.44033322 -213.74951172 149.41186523 C-212.86874969 149.39192001 -211.98798767 149.37197479 -211.08053589 149.35142517 C-209.65235031 149.32635643 -209.65235031 149.32635643 -208.1953125 149.30078125 C-206.73461838 149.2696096 -206.73461838 149.2696096 -205.24441528 149.23780823 C-202.12655853 149.17230152 -199.00861597 149.11342253 -195.890625 149.0546875 C-193.77993896 149.01150335 -191.66926167 148.9678891 -189.55859375 148.92382812 C-184.3776955 148.81661903 -179.19671144 148.71485472 -174.015625 148.6171875 C-174.21196533 147.95936279 -174.40830566 147.30153809 -174.6105957 146.6237793 C-186.05249865 107.96070497 -190.1200111 69.37792531 -170.8984375 32.47216797 C-156.26178604 5.62779211 -130.94395491 -12.77656687 -102.015625 -21.6953125 C-66.55238887 -31.08501025 -28.44757285 -23.17682966 0 0 Z " fill="#22c474" transform="translate(225.015625,79.3828125)"/>
<path d="M0 0 C1.60783915 2.98704261 2.63957596 5.89170713 3.55078125 9.15625 C3.83445557 10.16848633 4.11812988 11.18072266 4.41040039 12.22363281 C4.8569397 13.84543457 4.8569397 13.84543457 5.3125 15.5 C5.62372803 16.61987305 5.93495605 17.73974609 6.25561523 18.89355469 C8.34412265 26.46405772 10.29557277 34.0596517 12.15771484 41.68847656 C13.61030811 47.58631252 15.23728471 53.41912995 16.9375 59.25 C19.13630023 66.7939772 21.1287317 74.36830442 23 82 C25.06171107 90.40796792 27.31187382 98.73209696 29.7434082 107.04003906 C32.01854266 114.88779882 33.99619308 122.80074931 35.90820312 130.74414062 C37.7192641 141.2486637 37.7192641 141.2486637 43.1875 149.625 C46.89168466 150.11889129 50.47811225 150.39335122 54 149 C58.39962447 144.47885198 60.42969014 138.8842772 62.83203125 133.16015625 C63.29727707 132.06936264 63.76252289 130.97856903 64.24186707 129.85472107 C65.50930684 126.87911401 66.76975144 123.90066273 68.02716064 120.92080688 C69.34374637 117.80543987 70.66934142 114.69391215 71.99414062 111.58203125 C74.20713557 106.38096962 76.41503887 101.17777391 78.61962891 95.97314453 C81.96790026 88.06959505 85.33180044 80.17275093 88.69921875 72.27734375 C94.13913657 59.52091735 99.5721259 46.7615558 105 34 C105.66 34 106.32 34 107 34 C107.36251862 34.92841957 107.36251862 34.92841957 107.73236084 35.87559509 C110.26079632 42.34976832 112.79216421 48.82278949 115.32519531 55.29516602 C116.26864807 57.70698432 117.21136669 60.11908994 118.15332031 62.53149414 C119.51171469 66.01004633 120.87279426 69.48753774 122.234375 72.96484375 C122.65120544 74.03395493 123.06803589 75.1030661 123.49749756 76.20457458 C125.31738036 80.84568797 127.1589786 85.47709782 129.11035156 90.06469727 C129.40379456 90.7566066 129.69723755 91.44851593 129.99957275 92.16139221 C131.09883333 94.18163812 132.2556556 95.50814325 134 97 C137.10856811 97.84611913 139.86796029 97.70279915 143 97 C148.17404525 93.85555261 152.05554643 88.96659366 155.93359375 84.38671875 C159.16037644 80.65975425 162.54196881 77.07631866 165.91308594 73.47998047 C168.1601197 71.06684898 170.16649641 68.75025538 172 66 C174.81117911 65.71378314 177.40115429 65.62180597 180.21337891 65.65942383 C181.0622316 65.65898575 181.91108429 65.65854767 182.78565979 65.65809631 C185.59952568 65.66019118 188.41280033 65.68355485 191.2265625 65.70703125 C193.17426223 65.71262473 195.12196618 65.716896 197.06967163 65.71989441 C202.20230715 65.73136273 207.334689 65.76084696 212.46722412 65.79400635 C217.70207284 65.82466447 222.93696244 65.83839063 228.171875 65.85351562 C238.44802827 65.88571479 248.72399306 65.93693508 259 66 C256.93914469 72.38420823 254.59353981 78.32514184 251.5625 84.3125 C251.13146973 85.1684375 250.70043945 86.024375 250.25634766 86.90625 C243.14077315 100.80762193 234.92332606 114.18701899 226 127 C225.62697754 127.53753906 225.25395508 128.07507813 224.86962891 128.62890625 C212.4769123 146.42981452 198.66855179 163.03314471 184 179 C183.47599609 179.57443848 182.95199219 180.14887695 182.41210938 180.74072266 C173.59546107 190.38609633 164.44258112 199.53104873 154.80126953 208.3515625 C153.17234954 209.84227377 151.55155343 211.34116721 149.93359375 212.84375 C143.81803842 218.48084795 137.51751119 223.83460652 131 229 C130.35675781 229.51046875 129.71351563 230.0209375 129.05078125 230.546875 C111.85037635 244.15458904 94.27113771 256.89854822 75.578125 268.39404297 C73.7981156 269.50284049 72.03852538 270.64486186 70.296875 271.81298828 C69.42546875 272.38130371 68.5540625 272.94961914 67.65625 273.53515625 C66.88087891 274.05601807 66.10550781 274.57687988 65.30664062 275.11352539 C63 276 63 276 60.53466797 275.34716797 C55.75681159 272.80775249 51.20542342 269.93958288 46.625 267.0625 C45.01286621 266.05195557 45.01286621 266.05195557 43.36816406 265.02099609 C35.52135532 260.0581076 27.95166145 254.85166193 20.58349609 249.20703125 C19.06403838 248.04881371 17.52648483 246.91445315 15.98828125 245.78125 C4.91017173 237.61687556 -5.71418702 228.85992837 -16.1875 219.9375 C-16.68427246 219.51621826 -17.18104492 219.09493652 -17.69287109 218.66088867 C-28.1194884 209.70273906 -38.00698585 200.16043163 -47.70458984 190.42578125 C-49.39175958 188.73318653 -51.08430196 187.04609403 -52.77734375 185.359375 C-58.39813158 179.74233306 -63.87632518 174.08097921 -69 168 C-69.87671514 166.99011294 -70.75427139 165.98095523 -71.6328125 164.97265625 C-91.63599694 141.61470577 -109.29484954 116.35002291 -124.0625 89.375 C-124.88512329 87.88214478 -124.88512329 87.88214478 -125.72436523 86.35913086 C-126.49695679 84.92452515 -126.49695679 84.92452515 -127.28515625 83.4609375 C-127.73769775 82.62353027 -128.19023926 81.78612305 -128.65649414 80.92333984 C-129.81767929 78.39671237 -130.71924504 75.95372082 -131.58396912 73.31729126 C-131.9834408 72.10389037 -131.9834408 72.10389037 -132.39098263 70.86597633 C-132.59195836 70.25020414 -132.79293409 69.63443195 -133 69 C-131.82315643 68.99635437 -130.64631287 68.99270874 -129.43380737 68.98895264 C-118.33953775 68.95200071 -107.24554565 68.89422562 -96.15148735 68.81609726 C-90.44798512 68.77659946 -84.74463782 68.74442214 -79.04101562 68.72900391 C-73.53598998 68.71385271 -68.0313902 68.67943393 -62.52655411 68.63169098 C-60.42707141 68.61686142 -58.32752791 68.60895809 -56.22799301 68.60811615 C-53.28548607 68.60574954 -50.34415895 68.57869382 -47.40185547 68.54589844 C-46.53510696 68.5509288 -45.66835846 68.55595917 -44.77534485 68.56114197 C-39.40162596 68.46856616 -36.16776692 67.70645826 -32 64 C-30.06609386 61.27416137 -30.06609386 61.27416137 -28.59667969 58.1015625 C-28.306409 57.52218933 -28.01613831 56.94281616 -27.71707153 56.34588623 C-26.76995187 54.44611462 -25.84596091 52.53606674 -24.921875 50.625 C-24.26404069 49.2943884 -23.60477654 47.96448283 -22.94415283 46.63525391 C-21.21440042 43.14531585 -19.50407221 39.64620584 -17.79772949 36.14477539 C-16.05905096 32.58557909 -14.30224227 29.03536167 -12.546875 25.484375 C-9.46318379 19.24056693 -6.39541793 12.98915915 -3.33905029 6.73193359 C-2.23649241 4.48249238 -1.12466611 2.23844485 0 0 Z " fill="#22c474" transform="translate(194,182)"/>
<path d="M0 0 C7.28963377 4.91257928 8.38658871 15.17438722 10.3125 23.25 C12.03159628 30.30033737 13.90247975 37.28450332 15.9375 44.25 C18.13672941 51.79384373 20.12873666 59.36832464 22 67 C23.85099554 74.54863828 25.81982167 82.03970228 28 89.5 C30.46988124 97.95162487 32.64067292 106.45459412 34.73681641 115.00585938 C37.22611885 125.08137262 40.07527014 135.04347283 43 145 C45.13225653 142.86774347 45.84152807 141.34900525 47.00512695 138.59350586 C47.39842697 137.6689711 47.79172699 136.74443634 48.19694519 135.79188538 C48.83615654 134.26874977 48.83615654 134.26874977 49.48828125 132.71484375 C49.93935745 131.65079819 50.39043365 130.58675262 50.85517883 129.49046326 C51.83310119 127.18231765 52.80887841 124.87326228 53.78277588 122.56341553 C55.31813693 118.92413875 56.86086057 115.28806826 58.40576172 111.65283203 C63.14619643 100.49457165 67.86672996 89.32825116 72.55284119 78.14704895 C74.44959573 73.62762243 76.35700692 69.11274182 78.26644897 64.59866333 C79.16933547 62.45623214 80.06701768 60.31159997 80.9593811 58.1647644 C82.20254432 55.1746864 83.46257564 52.19226 84.7265625 49.2109375 C85.08712234 48.33110703 85.44768219 47.45127655 85.81916809 46.54478455 C87.82728857 41.86204816 89.48558464 38.73058742 94 36 C97.89458152 34.95680852 100.02149524 34.57746385 103.75 36.1875 C107.49912212 39.20762615 109.3675384 42.48076884 111.09716797 46.92944336 C111.48121796 47.90823959 111.86526794 48.88703583 112.26095581 49.89549255 C112.8704155 51.4766964 112.8704155 51.4766964 113.4921875 53.08984375 C113.92000519 54.18535049 114.34782288 55.28085724 114.78860474 56.40956116 C116.15657326 59.91663326 117.51586275 63.42699725 118.875 66.9375 C119.78198873 69.26649551 120.68953488 71.59527402 121.59765625 73.92382812 C125.75935659 84.60530489 129.8892666 95.29881 134 106 C136.07510853 106.22375239 136.07510853 106.22375239 137.43286133 104.70239258 C137.9770874 104.10579834 138.52131348 103.5092041 139.08203125 102.89453125 C139.68466797 102.24033203 140.28730469 101.58613281 140.90820312 100.91210938 C141.53662109 100.21923828 142.16503906 99.52636719 142.8125 98.8125 C144.04735733 97.46409257 145.28301983 96.11642201 146.51953125 94.76953125 C147.11072754 94.1245166 147.70192383 93.47950195 148.31103516 92.81494141 C150.48331509 90.48063539 152.72447005 88.2334684 155 86 C155.33 85.67 155.66 85.34 156 85 C158.9637284 84.87443502 161.90522706 84.81384398 164.87036133 84.79467773 C165.80444824 84.78477814 166.73853516 84.77487854 167.70092773 84.76467896 C170.82793586 84.73281878 173.95495777 84.70814053 177.08203125 84.68359375 C179.28448329 84.66297505 181.48693182 84.64197748 183.68937683 84.62062073 C188.34782791 84.57647956 193.00629243 84.53564134 197.66479492 84.49731445 C203.4945972 84.44929008 209.32432457 84.39543304 215.15405464 84.33939171 C226.46493486 84.23089419 237.77579911 84.13955673 249.08697701 84.06833458 C255.67009011 84.02613773 262.25283085 83.96867138 268.83570957 83.89911175 C272.94730316 83.85863323 277.05891241 83.83075499 281.1706295 83.80629158 C283.08745525 83.79233894 285.00425109 83.77319153 286.92096901 83.74853325 C289.5446818 83.71558306 292.16786113 83.70131017 294.79174805 83.69165039 C295.55619169 83.67755945 296.32063534 83.66346851 297.10824394 83.64895058 C301.59442696 83.65633457 304.45338737 84.19857806 308 87 C310.81725233 91.2258785 310.79958384 95.03624688 310 100 C307.80977082 102.82424288 306.16982793 104.41508603 303 106 C301.17835011 106.08838565 299.3533964 106.11146757 297.52961731 106.10438538 C295.78631638 106.10172668 295.78631638 106.10172668 294.00779724 106.09901428 C292.72623245 106.09220139 291.44466766 106.08538849 290.12426758 106.07836914 C288.76589076 106.07485406 287.40751244 106.07188664 286.0491333 106.06942749 C283.11950075 106.06374692 280.18988655 106.05573061 277.26026344 106.04640388 C272.62487545 106.03324045 267.98957079 106.0349546 263.35417175 106.04063416 C262.57204671 106.04155424 261.78992167 106.04247432 260.98409587 106.04342228 C258.57468352 106.04639397 256.16527147 106.04955906 253.75585938 106.05273438 C243.77222574 106.06552674 233.78898446 106.06755416 223.80541992 106.02416992 C216.527706 105.99264931 209.25059024 105.98938782 201.97285956 106.01892942 C198.12187922 106.03346845 194.27209475 106.03369035 190.42121315 105.99952888 C186.79513327 105.96764035 183.17101162 105.97321851 179.54496765 106.00703049 C177.58652732 106.01559019 175.62803799 105.98460163 173.66984558 105.95228577 C167.26601665 105.95422295 167.26601665 105.95422295 161.70926476 108.73928642 C159.93988159 110.74402042 158.46901377 112.77025659 157 115 C156.09696598 116.03729548 155.17354879 117.0573564 154.2265625 118.0546875 C149.01922503 123.69987917 143.85788047 129.37632721 138.77734375 135.13671875 C136.17125965 137.86881131 134.36207164 138.21443048 130.6875 138.375 C129.92824219 138.42398438 129.16898437 138.47296875 128.38671875 138.5234375 C124.88443845 137.75534329 123.07004036 135.79550501 121 133 C119.21565155 129.44705602 117.84435527 125.76342341 116.4609375 122.0390625 C116.0534024 120.97513275 115.64586731 119.911203 115.22598267 118.81503296 C113.92967465 115.42301301 112.65192589 112.02435777 111.375 108.625 C110.08680813 105.23446357 108.79490483 101.84535864 107.50259399 98.45639038 C106.7012558 96.35073137 105.90306636 94.24387054 105.10848999 92.13565063 C103.56398059 88.04409153 102.0185191 83.97889725 100.23291016 79.98583984 C99 77 99 77 99 74 C98.34 74 97.68 74 97 74 C96.87558029 74.72395966 96.75116058 75.44791931 96.62297058 76.19381714 C96.00919416 78.95858474 95.15205408 81.30194867 94.0324707 83.89892578 C93.41717247 85.33587296 93.41717247 85.33587296 92.78944397 86.80184937 C92.33943527 87.8391922 91.88942657 88.87653503 91.42578125 89.9453125 C90.95373764 91.0441275 90.48169403 92.1429425 89.99534607 93.27505493 C88.7071136 96.27099004 87.41460466 99.26503098 86.11973572 102.25810242 C84.76832313 105.38352024 83.42098145 108.51069217 82.07324219 111.63769531 C80.40388423 115.51031872 78.73394353 119.38268664 77.06161499 123.25402832 C73.75191141 130.91824966 70.46381348 138.59123915 67.19914246 146.27474976 C65.19850007 150.9818673 63.19065076 155.68589275 61.18197632 160.3895874 C60.23005709 162.62345212 59.28132653 164.85867841 58.33584595 167.09527588 C57.01918665 170.20799485 55.69070229 173.31540724 54.359375 176.421875 C53.97494736 177.33909332 53.59051971 178.25631165 53.19444275 179.20132446 C51.3362275 183.50518561 49.79102434 187.03730873 46 190 C42.3002397 191.34603605 38.97640907 191.31067561 35.25 190.125 C28.81557921 184.04804703 27.5055415 173.75792637 25.5625 165.5 C22.76728124 153.9359016 22.76728124 153.9359016 19.5 142.5 C16.84608966 133.85349595 14.74850856 125.07425968 12.58813477 116.29394531 C10.84010926 109.23331194 8.96529084 102.24805859 6.83935547 95.29321289 C5.05877837 89.39098312 3.58756724 83.42546736 2.125 77.4375 C-0.87263202 65.17832087 -4.36992507 53.08513794 -8 41 C-8.34272949 41.73089844 -8.34272949 41.73089844 -8.69238281 42.4765625 C-12.07886745 49.67488733 -15.52741731 56.84290344 -19 64 C-19.38418091 64.79194763 -19.76836182 65.58389526 -20.16418457 66.39984131 C-22.76902038 71.76206686 -25.39198682 77.11502124 -28.03161621 82.46020508 C-28.92561219 84.27516721 -29.81536216 86.09222711 -30.70080566 87.91137695 C-31.96342626 90.50280437 -33.24152315 93.08604232 -34.5234375 95.66796875 C-34.90025665 96.44939743 -35.27707581 97.23082611 -35.66531372 98.03593445 C-38.20894323 103.10413257 -40.79271078 106.39635539 -46 109 C-47.95018012 109.10239519 -49.90389909 109.13950858 -51.85675049 109.14717102 C-53.10453781 109.15432632 -54.35232513 109.16148163 -55.63792419 109.16885376 C-57.02847265 109.17169416 -58.41902138 109.17440588 -59.80957031 109.17700195 C-61.26809349 109.18326567 -62.72661507 109.18991238 -64.18513489 109.19691467 C-68.15429544 109.21433403 -72.12344393 109.22487919 -76.09263325 109.2331202 C-78.57217175 109.23826889 -81.05170651 109.24434471 -83.53124237 109.25063133 C-91.28826663 109.26968691 -99.04528136 109.28391668 -106.80232453 109.2922433 C-115.75795629 109.30201499 -124.71334083 109.32833103 -133.66888547 109.36874419 C-140.58955891 109.39890332 -147.51016149 109.41371201 -154.43089938 109.41702431 C-158.56489697 109.41937524 -162.69863056 109.42834078 -166.83255768 109.45348549 C-170.72320903 109.47676756 -174.61342263 109.48099913 -178.5041256 109.47072411 C-179.93034763 109.47022864 -181.35659122 109.47655225 -182.78274727 109.49028015 C-196.23033423 109.61245689 -196.23033423 109.61245689 -201 105 C-202.85726616 101.28546768 -202.58501089 97.04420575 -202 93 C-199.80977082 90.17575712 -198.16982793 88.58491397 -195 87 C-193.1501146 86.90642475 -191.29679942 86.87808873 -189.44454956 86.87974548 C-187.67345322 86.87768349 -187.67345322 86.87768349 -185.86657715 86.87557983 C-183.91370789 86.88097275 -183.91370789 86.88097275 -181.92138672 86.88647461 C-180.54179893 86.88675657 -179.16221099 86.88659858 -177.78262329 86.8860321 C-174.03078219 86.88574447 -170.27897288 86.8916358 -166.52713919 86.89860606 C-162.60868076 86.90484516 -158.69022166 86.90544384 -154.77175903 86.90663147 C-147.34863184 86.90974314 -139.92551933 86.91795433 -132.50239861 86.92798096 C-124.0526964 86.93914718 -115.60299349 86.94465383 -107.15328574 86.94967639 C-89.76884866 86.96013707 -72.38442588 86.97773335 -55 87 C-54.5918103 86.18362061 -54.18362061 85.36724121 -53.76306152 84.52612305 C-44.872111 66.74422201 -35.98116048 48.96232096 -27.09020996 31.18041992 C-26.57646694 30.15232964 -26.57646694 30.15232964 -26.05234528 29.10346985 C-25.376765 27.7531154 -24.69990454 26.40340057 -24.02169037 25.05436707 C-22.26631552 21.55858095 -20.53948343 18.05201386 -18.84985352 14.52392578 C-18.31854198 13.42746483 -18.31854198 13.42746483 -17.77649689 12.30885315 C-17.10183963 10.91520049 -16.43504904 9.5177015 -15.7776413 8.11582947 C-12.17120356 0.71277707 -8.03906892 -1.48125957 0 0 Z " fill="#EEEDEC" transform="translate(202,142)"/>
</svg>
